<svg id="SvgjsSvg1001" width="288" height="288" xmlns="http://www.w3.org/2000/svg" version="1.1" xmlns:xlink="http://www.w3.org/1999/xlink" xmlns:svgjs="http://svgjs.com/svgjs"><defs id="SvgjsDefs1002"></defs><g id="SvgjsG1008" transform="matrix(1,0,0,1,0,0)"><svg xmlns="http://www.w3.org/2000/svg" fill-rule="evenodd" stroke-linejoin="round" stroke-miterlimit="2" clip-rule="evenodd" viewBox="0 0 48 48" width="288" height="288"><g transform="translate(-77 -68)" fill="#59636d" class="color000 svgShape"><path d="M95,72L115,72C115.46,72 115.833,71.552 115.833,71C115.833,70.448 115.46,70 115,70L95,70C94.54,70 94.167,70.448 94.167,71C94.167,71.552 94.54,72 95,72Z" transform="matrix(1.2 0 0 1 -18 0)" fill="#59636d" class="color000 svgShape"></path><path d="M95,72L115,72C116.84,72 118.333,71.552 118.333,71C118.333,70.448 116.84,70 115,70L95,70C93.16,70 91.667,70.448 91.667,71C91.667,71.552 93.16,72 95,72Z" transform="matrix(.3 0 0 1 67.5 5)" fill="#59636d" class="color000 svgShape"></path><path d="M95,70L115,70C116.84,70 118.333,70.448 118.333,71C118.333,71.552 116.84,72 115,72L95,72C93.16,72 91.667,71.552 91.667,71C91.667,70.448 93.16,70 95,70Z" transform="matrix(-.3 0 0 1 140.5 9)" fill="#59636d" class="color000 svgShape"></path><path d="M95,72L115,72C120.519,72 125,71.552 125,71C125,70.448 120.519,70 115,70L95,70C89.481,70 85,70.448 85,71C85,71.552 89.481,72 95,72Z" transform="matrix(.1 0 0 1 100.5 5)" fill="#59636d" class="color000 svgShape"></path><path d="M95,70L115,70C120.519,70 125,70.448 125,71C125,71.552 120.519,72 115,72L95,72C89.481,72 85,71.552 85,71C85,70.448 89.481,70 95,70Z" transform="matrix(-.1 0 0 1 107.5 9)" fill="#59636d" class="color000 svgShape"></path><path d="M88,75L88,82C88,82.552 88.448,83 89,83C89.552,83 90,82.552 90,82L90,75C90,74.448 89.552,74 89,74C88.448,74 88,74.448 88,75Z" transform="translate(3)" fill="#59636d" class="color000 svgShape"></path><path d="M110 109L110 91C110 90.448 109.552 90 109 90 108.448 90 108 90.448 108 91L108 109C108 109.552 108.448 110 109 110 109.552 110 110 109.552 110 109zM110 83L110 75C110 74.448 109.552 74 109 74 108.448 74 108 74.448 108 75L108 83C108 83.552 108.448 84 109 84 109.552 84 110 83.552 110 83z" transform="translate(7)" fill="#59636d" class="color000 svgShape"></path><circle cx="33" cy="80" r="1" transform="matrix(-1 0 0 1 149 7)" fill="#59636d" class="color000 svgShape"></circle><path d="M110,75C110,73.344 111.344,72 113,72C113.552,72 114,71.552 114,71C114,70.448 113.552,70 113,70C110.24,70 108,72.24 108,75C108,75.552 108.448,76 109,76C109.552,76 110,75.552 110,75Z" transform="translate(7)" fill="#59636d" class="color000 svgShape"></path><path d="M110,75C110,73.344 111.344,72 113,72C113.552,72 114,71.552 114,71C114,70.448 113.552,70 113,70C110.24,70 108,72.24 108,75C108,75.552 108.448,76 109,76C109.552,76 110,75.552 110,75Z" transform="translate(-17)" fill="#59636d" class="color000 svgShape"></path><path d="M108,75C108,72.24 110.24,70 113,70C113.552,70 114,70.448 114,71C114,71.552 113.552,72 113,72C111.344,72 110,73.344 110,75C110,75.552 109.552,76 109,76C108.448,76 108,75.552 108,75Z" transform="matrix(1 0 0 -1 -17 184)" fill="#59636d" class="color000 svgShape"></path><path d="M108,75C108,72.24 110.24,70 113,70C113.552,70 114,70.448 114,71C114,71.552 113.552,72 113,72C111.344,72 110,73.344 110,75C110,75.552 109.552,76 109,76C108.448,76 108,75.552 108,75Z" transform="matrix(1 0 0 -1 7 184)" fill="#59636d" class="color000 svgShape"></path><path d="M95,114L115,114C115.46,114 115.833,113.552 115.833,113C115.833,112.448 115.46,112 115,112L95,112C94.54,112 94.167,112.448 94.167,113C94.167,113.552 94.54,114 95,114Z" transform="matrix(1.2 0 0 1 -18 0)" fill="#59636d" class="color000 svgShape"></path><path d="M163.25,88.393C160.569,88.393 158.393,90.569 158.393,93.25C158.393,95.931 160.569,98.107 163.25,98.107C165.931,98.107 168.107,95.931 168.107,93.25C168.107,90.569 165.931,88.393 163.25,88.393ZM163.25,89.607C165.261,89.607 166.893,91.239 166.893,93.25C166.893,95.261 165.261,96.893 163.25,96.893C161.239,96.893 159.607,95.261 159.607,93.25C159.607,91.239 161.239,89.607 163.25,89.607Z" transform="translate(-176.882 -60.588) scale(1.64706)" fill="#59636d" class="color000 svgShape"></path><path d="M163.25,87.3C159.966,87.3 157.3,89.966 157.3,93.25C157.3,96.534 159.966,99.2 163.25,99.2C166.534,99.2 169.2,96.534 169.2,93.25C169.2,89.966 166.534,87.3 163.25,87.3ZM163.25,90.7C164.657,90.7 165.8,91.843 165.8,93.25C165.8,94.657 164.657,95.8 163.25,95.8C161.843,95.8 160.7,94.657 160.7,93.25C160.7,91.843 161.843,90.7 163.25,90.7Z" transform="translate(-4.03 38.147) scale(.58823)" fill="#59636d" class="color000 svgShape"></path><path d="M169.239,96.485C169.075,96.202 168.784,96.017 168.459,95.989C168.134,95.961 167.815,96.093 167.605,96.344C166.504,97.661 164.849,98.5 163,98.5C162.97,98.5 162.941,98.5 162.911,98.499C162.551,98.494 162.216,98.682 162.034,98.993C161.851,99.303 161.85,99.687 162.03,99.999L166.938,108.5C167.129,108.832 167.493,109.025 167.875,108.997C168.257,108.97 168.59,108.727 168.732,108.372L169.858,105.558C169.858,105.558 172.858,105.99 172.858,105.99C173.237,106.044 173.613,105.878 173.828,105.561C174.043,105.243 174.057,104.832 173.866,104.5L169.239,96.485ZM164.542,100.351C165.902,100.085 167.139,99.474 168.158,98.614L168.158,98.614L171.104,103.717C171.104,103.717 169.364,103.466 169.364,103.466C168.908,103.401 168.465,103.656 168.294,104.085L167.64,105.717L164.542,100.351Z" transform="translate(-71 .5)" fill="#59636d" class="color000 svgShape"></path><path d="M158.395,96.344C158.185,96.093 157.866,95.961 157.541,95.989C157.216,96.017 156.925,96.202 156.761,96.485L152.134,104.5C151.943,104.832 151.957,105.243 152.172,105.561C152.387,105.878 152.763,106.044 153.142,105.99L156.142,105.558C156.142,105.558 157.268,108.372 157.268,108.372C157.41,108.727 157.743,108.97 158.125,108.997C158.507,109.025 158.871,108.832 159.062,108.5L163.97,99.999C164.15,99.687 164.149,99.303 163.966,98.993C163.784,98.682 163.449,98.494 163.089,98.499C163.059,98.5 163.03,98.5 163,98.5C161.151,98.5 159.496,97.661 158.395,96.344ZM161.458,100.351L158.36,105.717C158.36,105.717 157.706,104.085 157.706,104.085C157.535,103.656 157.092,103.401 156.636,103.466L154.896,103.717L157.842,98.614C158.861,99.474 160.098,100.085 161.458,100.351Z" transform="translate(-71 .5)" fill="#59636d" class="color000 svgShape"></path><circle cx="33" cy="80" r="1" transform="translate(73 -4)" fill="#59636d" class="color000 svgShape"></circle><circle cx="33" cy="80" r="1" transform="matrix(-1 0 0 1 135 0)" fill="#59636d" class="color000 svgShape"></circle></g></svg></g></svg>